<svg xmlns="http://www.w3.org/2000/svg" viewBox="0 0 1200 900" width="1200" height="900" role="img" aria-labelledby="t d">
  <title id="t">Workshop table</title>
  <desc id="d">A class workshop table set with two terrariums in progress, a tray of moss and gravel, planting tools and seedlings.</desc>
  <defs>
    <linearGradient id="wall" x1="0.2" y1="0" x2="0.7" y2="1">
      <stop offset="0" stop-color="#fbf8ed"/>
      <stop offset="0.5" stop-color="#e3e6d3"/>
      <stop offset="1" stop-color="#a7b795"/>
    </linearGradient>
    <linearGradient id="floor" x1="0" y1="0" x2="0" y2="1">
      <stop offset="0" stop-color="#bfc7a8"/>
      <stop offset="1" stop-color="#7d8a66"/>
    </linearGradient>
    <linearGradient id="table" x1="0" y1="0" x2="0.3" y2="1">
      <stop offset="0" stop-color="#cdb287"/>
      <stop offset="0.55" stop-color="#a58a60"/>
      <stop offset="1" stop-color="#6d5939"/>
    </linearGradient>
    <linearGradient id="glassBody" x1="0.15" y1="0" x2="0.85" y2="1">
      <stop offset="0" stop-color="#ffffff" stop-opacity="0.78"/>
      <stop offset="0.45" stop-color="#e9f0e6" stop-opacity="0.36"/>
      <stop offset="1" stop-color="#8ea08a" stop-opacity="0.46"/>
    </linearGradient>
    <linearGradient id="terracotta" x1="0" y1="0" x2="1" y2="0.6">
      <stop offset="0" stop-color="#c87f52"/>
      <stop offset="1" stop-color="#8d4b2b"/>
    </linearGradient>
    <linearGradient id="fade" x1="0" y1="0" x2="0" y2="1">
      <stop offset="0.6" stop-color="#14291c" stop-opacity="0"/>
      <stop offset="1" stop-color="#14291c" stop-opacity="0.24"/>
    </linearGradient>
    <filter id="soft" x="-40%" y="-40%" width="180%" height="180%"><feGaussianBlur stdDeviation="40"/></filter>
    <filter id="cast" x="-50%" y="-90%" width="200%" height="280%"><feGaussianBlur stdDeviation="14"/></filter>
    <clipPath id="jarA"><path d="M-92 -184 C -102 -140 -104 -50 -88 -18 C -74 12 74 12 88 -18 C 104 -50 102 -140 92 -184Z"/></clipPath>
    <clipPath id="jarB"><path d="M-70 -136 C -80 -100 -80 -40 -66 -14 C -54 10 54 10 66 -14 C 80 -40 80 -100 70 -136Z"/></clipPath>
  </defs>

  <rect width="1200" height="900" fill="url(#wall)"/>
  <rect x="640" y="-140" width="400" height="620" rx="200" fill="#ffffff" opacity="0.36" filter="url(#soft)"/>
  <circle cx="210" cy="760" r="250" fill="#1d3a26" opacity="0.11" filter="url(#soft)"/>

  <!-- shelf of supplies behind -->
  <rect x="222" y="288" width="760" height="18" rx="6" fill="#a58a60"/>
  <g>
    <g transform="translate(330 288)">
      <path d="M-40 -50 C -37 -31 -32 -14 -27 0 H27 C 32 -14 37 -31 40 -50Z" fill="url(#terracotta)"/>
      <rect x="-48" y="-66" width="96" height="18" rx="6" fill="#b06a41"/>
      <g fill="#4a7a4a" stroke="#2c5236" stroke-width="2.4">
        <path d="M-12 -70 c -22 -10 -28 -34 -12 -52 c 22 12 28 34 12 52Z"/>
        <path d="M-10 -74 c 14 -22 42 -24 60 -6 c -16 20 -44 22 -60 6Z"/>
      </g>
    </g>
    <g transform="translate(462 288)">
      <path d="M-34 -44 C -31 -27 -27 -12 -23 0 H23 C 27 -12 31 -27 34 -44Z" fill="#e0d7c1"/>
      <rect x="-42" y="-58" width="84" height="16" rx="6" fill="#eee6d4"/>
      <g fill="#5d8a54" stroke="#2c5236" stroke-width="2.4">
        <path d="M0 -62 c -18 -10 -22 -30 -8 -44 c 18 12 22 30 8 44Z"/>
        <path d="M2 -66 c 12 -18 36 -20 50 -4 c -14 16 -38 18 -50 4Z"/>
      </g>
    </g>
    <g transform="translate(846 288)">
      <ellipse cx="0" cy="-44" rx="54" ry="14" fill="#dfe8da" opacity="0.9"/>
      <path d="M-54 -44 C -54 -18 -38 0 0 0 C 38 0 54 -18 54 -44Z" fill="url(#glassBody)" stroke="#e9f0e6" stroke-width="4"/>
      <path d="M-40 -40 C -42 -22 -32 -8 -14 -4" fill="none" stroke="#ffffff" stroke-width="7" stroke-opacity="0.55" stroke-linecap="round"/>
    </g>
    <g transform="translate(736 288)">
      <rect x="-46" y="-92" width="92" height="92" rx="10" fill="#e3d3b3" stroke="#c2ac86" stroke-width="3"/>
      <g fill="#b9892e"><rect x="-28" y="-66" width="56" height="6" rx="3"/><rect x="-20" y="-48" width="40" height="6" rx="3"/></g>
      <path d="M-14 -28 c 12 -14 32 -13 44 3 c -14 12 -34 11 -44 -3Z" fill="#5f8a52"/>
    </g>
  </g>

  <rect x="0" y="748" width="1200" height="152" fill="url(#floor)"/>
  <rect x="0" y="744" width="1200" height="8" fill="#717f5c" opacity="0.5"/>

  <!-- table legs -->
  <rect x="286" y="644" width="30" height="152" rx="7" fill="#6d5939"/>
  <rect x="884" y="644" width="30" height="152" rx="7" fill="#6d5939"/>

  <!-- terrarium in progress, large -->
  <g transform="translate(478 640)">
    <ellipse cx="6" cy="6" rx="128" ry="16" fill="#1d3a26" opacity="0.26" filter="url(#cast)"/>
    <g clip-path="url(#jarA)">
      <rect x="-110" y="-46" width="220" height="60" fill="#a4a98d"/>
      <g fill="#8b9174"><circle cx="-70" cy="-28" r="11"/><circle cx="-30" cy="-16" r="12"/><circle cx="14" cy="-30" r="11"/><circle cx="58" cy="-16" r="12"/><circle cx="94" cy="-28" r="10"/></g>
      <rect x="-110" y="-74" width="220" height="30" fill="#3b3b38"/>
      <rect x="-110" y="-128" width="220" height="56" fill="#4a3a2b"/>
      <g fill="#5d4a36"><circle cx="-72" cy="-108" r="9"/><circle cx="-18" cy="-92" r="10"/><circle cx="40" cy="-110" r="9"/><circle cx="88" cy="-94" r="8"/></g>
      <path d="M-110 -134 C -60 -150 -8 -140 42 -148 C 84 -154 96 -142 110 -136 L110 -122 H-110Z" fill="#4f7f39"/>
      <g fill="#7aa64f"><circle cx="-78" cy="-142" r="11"/><circle cx="-34" cy="-148" r="12"/><circle cx="16" cy="-142" r="11"/><circle cx="62" cy="-150" r="12"/></g>
      <g fill="none" stroke="#3d6b43" stroke-width="5" stroke-linecap="round"><path d="M-30 -142 C -36 -158 -36 -170 -30 -180"/></g>
      <g stroke="#2c5236" stroke-width="2.6" stroke-linejoin="round">
        <path d="M-30 -180 c -20 -10 -24 -32 -11 -48 c 20 11 25 32 11 48Z" fill="#4a7a4a"/>
        <path d="M-30 -180 c 12 -18 36 -22 52 -8 c -13 18 -37 21 -52 8Z" fill="#5d8a54"/>
        <path d="M40 -150 c -14 -16 -12 -37 4 -49 c 14 16 11 35 -4 49Z" fill="#3f6d43"/>
      </g>
    </g>
    <path d="M-92 -184 C -102 -140 -104 -50 -88 -18 C -74 12 74 12 88 -18 C 104 -50 102 -140 92 -184Z" fill="url(#glassBody)" stroke="#f2f6ee" stroke-width="4.5" stroke-opacity="0.85"/>
    <path d="M-74 -174 C -86 -136 -88 -56 -72 -24" fill="none" stroke="#ffffff" stroke-width="10" stroke-opacity="0.5" stroke-linecap="round"/>
    <ellipse cx="0" cy="-184" rx="92" ry="19" fill="#eef3ea" opacity="0.8" stroke="#dbe3d5" stroke-width="3"/>
  </g>

  <!-- terrarium in progress, small -->
  <g transform="translate(716 640)">
    <ellipse cx="4" cy="6" rx="100" ry="14" fill="#1d3a26" opacity="0.24" filter="url(#cast)"/>
    <g clip-path="url(#jarB)">
      <rect x="-84" y="-40" width="168" height="52" fill="#a4a98d"/>
      <g fill="#8b9174"><circle cx="-52" cy="-24" r="10"/><circle cx="-14" cy="-14" r="11"/><circle cx="28" cy="-26" r="10"/><circle cx="64" cy="-14" r="9"/></g>
      <rect x="-84" y="-64" width="168" height="26" fill="#3b3b38"/>
      <rect x="-84" y="-100" width="168" height="38" fill="#4a3a2b"/>
      <path d="M-84 -104 C -44 -116 -4 -108 36 -114 C 64 -118 74 -110 84 -106 L84 -94 H-84Z" fill="#4f7f39"/>
      <g fill="#7aa64f"><circle cx="-56" cy="-112" r="10"/><circle cx="-16" cy="-116" r="10"/><circle cx="26" cy="-112" r="10"/><circle cx="62" cy="-108" r="9"/></g>
    </g>
    <path d="M-70 -136 C -80 -100 -80 -40 -66 -14 C -54 10 54 10 66 -14 C 80 -40 80 -100 70 -136Z" fill="url(#glassBody)" stroke="#f2f6ee" stroke-width="4.5" stroke-opacity="0.85"/>
    <path d="M-54 -128 C -64 -98 -64 -46 -52 -20" fill="none" stroke="#ffffff" stroke-width="9" stroke-opacity="0.5" stroke-linecap="round"/>
    <ellipse cx="0" cy="-136" rx="70" ry="16" fill="#eef3ea" opacity="0.8" stroke="#dbe3d5" stroke-width="3"/>
  </g>

  <!-- supply tray -->
  <g transform="translate(880 640)">
    <ellipse cx="0" cy="6" rx="112" ry="14" fill="#1d3a26" opacity="0.22" filter="url(#cast)"/>
    <path d="M-104 -48 H104 L92 0 H-92Z" fill="#b3966b" stroke="#8d7550" stroke-width="3"/>
    <rect x="-110" y="-62" width="220" height="18" rx="5" fill="#c6a97c"/>
    <path d="M-96 -48 H-24 L-32 0 H-88Z" fill="#4f7f39"/>
    <g fill="#7aa64f"><circle cx="-80" cy="-34" r="9"/><circle cx="-52" cy="-22" r="9"/><circle cx="-72" cy="-12" r="7"/></g>
    <path d="M-20 -48 H32 L26 0 H-28Z" fill="#4a3a2b"/>
    <path d="M36 -48 H96 L88 0 H30Z" fill="#a4a98d"/>
    <g fill="#8b9174"><circle cx="54" cy="-32" r="8"/><circle cx="76" cy="-18" r="8"/><circle cx="50" cy="-12" r="7"/></g>
  </g>

  <!-- seedlings waiting -->
  <g transform="translate(324 640)">
    <ellipse cx="0" cy="6" rx="70" ry="11" fill="#1d3a26" opacity="0.22" filter="url(#cast)"/>
    <path d="M-52 -44 C -49 -27 -44 -12 -38 0 H38 C 44 -12 49 -27 52 -44Z" fill="url(#terracotta)"/>
    <rect x="-60" y="-58" width="120" height="17" rx="6" fill="#b06a41"/>
    <g fill="none" stroke="#3d6b43" stroke-width="6" stroke-linecap="round">
      <path d="M-16 -58 C -22 -92 -22 -118 -14 -140"/>
      <path d="M14 -58 C 18 -88 18 -110 12 -128"/>
    </g>
    <g fill="#4a7a4a" stroke="#2c5236" stroke-width="2.6">
      <path d="M-14 -140 c -24 -12 -30 -40 -14 -60 c 24 14 30 40 14 60Z"/>
      <path d="M-14 -140 c 14 -22 44 -26 62 -8 c -16 22 -46 26 -62 8Z"/>
      <path d="M12 -128 c -18 -20 -14 -46 8 -60 c 16 20 12 44 -8 60Z"/>
    </g>
  </g>

  <!-- table top -->
  <rect x="264" y="638" width="674" height="28" rx="8" fill="url(#table)"/>
  <rect x="264" y="638" width="674" height="10" rx="5" fill="#dcc49a" opacity="0.75"/>

  <!-- tweezers and brush resting on the table -->
  <g transform="translate(592 654)">
    <g stroke="#7f8c72" stroke-width="7" stroke-linecap="round" fill="none">
      <path d="M-120 -6 L14 -22"/>
      <path d="M-120 4 L14 -14"/>
    </g>
    <path d="M14 -22 L54 -30 L14 -14Z" fill="#9aa68c"/>
    <g transform="translate(120 -6) rotate(-8)">
      <rect x="-70" y="-8" width="118" height="14" rx="7" fill="#8c7a5a"/>
      <path d="M48 -12 C 76 -16 96 -6 98 8 C 82 16 58 12 46 4Z" fill="#e0cfa8" stroke="#b9a67e" stroke-width="3"/>
    </g>
  </g>

  <rect width="1200" height="900" fill="url(#fade)"/>
</svg>
